HIERARCHY
ROOT Hips
{
	OFFSET 0.000000 0.000000 0.000000
	CHANNELS 6 Xposition Yposition Zposition Zrotation Yrotation Xrotation 
	JOINT LHipJoint
	{
		OFFSET 0.000000 0.000000 0.000000
		CHANNELS 3 Zrotation Yrotation Xrotation
		JOINT LeftUpLeg
		{
			OFFSET 1.363060 -1.794630 0.839290
			CHANNELS 3 Zrotation Yrotation Xrotation
			JOINT LeftLeg
			{
				OFFSET 2.448110 -6.726130 0.000000
				CHANNELS 3 Zrotation Yrotation Xrotation
				JOINT LeftFoot
				{
					OFFSET 2.562200 -7.039590 0.000000
					CHANNELS 3 Zrotation Yrotation Xrotation
					JOINT LeftToeBase
					{
						OFFSET 0.157640 -0.433110 2.322550
						CHANNELS 3 Zrotation Yrotation Xrotation
						End Site
						{
							OFFSET 0.000000 0.000000 0.000000
						}
					}
				}
			}
		}
	}
	JOINT RHipJoint
	{
		OFFSET 0.000000 0.000000 0.000000
		CHANNELS 3 Zrotation Yrotation Xrotation
		JOINT RightUpLeg
		{
			OFFSET -1.305520 -1.794630 0.839290
			CHANNELS 3 Zrotation Yrotation Xrotation
			JOINT RightLeg
			{
				OFFSET -2.542530 -6.985550 0.000000
				CHANNELS 3 Zrotation Yrotation Xrotation
				JOINT RightFoot
				{
					OFFSET -2.568260 -7.056230 0.000000
					CHANNELS 3 Zrotation Yrotation Xrotation
					JOINT RightToeBase
					{
						OFFSET -0.164730 -0.452590 2.363150
						CHANNELS 3 Zrotation Yrotation Xrotation
						End Site
						{
							OFFSET 0.000000 0.000000 0.000000
						}
					}
				}
			}
		}
	}
	JOINT LowerBack
	{
		OFFSET 0.000000 0.000000 0.000000
		CHANNELS 3 Zrotation Yrotation Xrotation
		JOINT Spine
		{
			OFFSET 0.028270 2.035590 -0.193380
			CHANNELS 3 Zrotation Yrotation Xrotation
			JOINT Spine1
			{
				OFFSET 0.056720 2.048850 -0.042750
				CHANNELS 3 Zrotation Yrotation Xrotation
				JOINT Neck
				{
					OFFSET 0.000000 0.000000 0.000000
					CHANNELS 3 Zrotation Yrotation Xrotation
					JOINT Neck1
					{
						OFFSET -0.054170 1.746240 0.172020
						CHANNELS 3 Zrotation Yrotation Xrotation
						JOINT Head
						{
							OFFSET 0.104070 1.761360 -0.123970
							CHANNELS 3 Zrotation Yrotation Xrotation
							End Site
							{
								OFFSET 0.000000 0.000000 0.000000
							}
						}
					}
				}
				JOINT LeftShoulder
				{
					OFFSET 0.000000 0.000000 0.000000
					CHANNELS 3 Zrotation Yrotation Xrotation
					JOINT LeftArm
					{
						OFFSET 3.362410 1.200890 -0.311210
						CHANNELS 3 Zrotation Yrotation Xrotation
						JOINT LeftForeArm
						{
							OFFSET 4.983000 -0.000000 -0.000000
							CHANNELS 3 Zrotation Yrotation Xrotation
							JOINT LeftHand
							{
								OFFSET 3.483560 -0.000000 -0.000000
								CHANNELS 3 Zrotation Yrotation Xrotation
								JOINT LeftFingerBase
								{
									OFFSET 0.000000 0.000000 0.000000
									CHANNELS 3 Zrotation Yrotation Xrotation
									JOINT LeftHandIndex1
									{
										OFFSET 0.715260 -0.000000 -0.000000
										CHANNELS 3 Zrotation Yrotation Xrotation
										End Site
										{
											OFFSET 0.000000 0.000000 0.000000
										}
									}
								}
								JOINT LThumb
								{
									OFFSET 0.000000 0.000000 0.000000
									CHANNELS 3 Zrotation Yrotation Xrotation
									End Site
									{
										OFFSET 0.000000 0.000000 0.000000
									}
								}
							}
						}
					}
				}
				JOINT RightShoulder
				{
					OFFSET 0.000000 0.000000 0.000000
					CHANNELS 3 Zrotation Yrotation Xrotation
					JOINT RightArm
					{
						OFFSET -3.136600 1.374050 -0.404650
						CHANNELS 3 Zrotation Yrotation Xrotation
						JOINT RightForeArm
						{
							OFFSET -5.241900 -0.000000 -0.000000
							CHANNELS 3 Zrotation Yrotation Xrotation
							JOINT RightHand
							{
								OFFSET -3.444170 -0.000000 -0.000000
								CHANNELS 3 Zrotation Yrotation Xrotation
								JOINT RightFingerBase
								{
									OFFSET 0.000000 0.000000 0.000000
									CHANNELS 3 Zrotation Yrotation Xrotation
									JOINT RightHandIndex1
									{
										OFFSET -0.622530 -0.000000 -0.000000
										CHANNELS 3 Zrotation Yrotation Xrotation
										End Site
										{
											OFFSET 0.000000 0.000000 0.000000
										}
									}
								}
								JOINT RThumb
								{
									OFFSET 0.000000 0.000000 0.000000
									CHANNELS 3 Zrotation Yrotation Xrotation
									End Site
									{
										OFFSET 0.000000 0.000000 0.000000
									}
								}
							}
						}
					}
				}
			}
		}
	}
}
MOTION
Frames: 5
Frame Time: 0.008333
12.762962 17.848132 16.055537 -72.337675 -83.993302 74.741722 -0.423153 -0.058632 0.141059 -11.665812 -1.225694 -5.124062 2.183032 9.525324 27.310780 1.281307 -0.832345 -21.003583 0.036900 -1.239400 -3.407800 0.424223 0.113635 0.074356 29.076022 4.458063 -3.624152 -2.116057 -9.383361 26.891283 -1.090235 -0.783022 -20.060615 -1.075200 -6.591400 18.510300 1.623920 -1.174823 -1.910691 3.264258 -1.624598 -3.711238 2.840115 -0.843773 -2.676608 -9.131075 -5.860052 -5.104084 -1.543899 -7.022956 13.236609 0.520900 -4.060400 5.159000 0.106076 -0.091826 -0.035177 -48.985525 -47.965746 18.839959 148.264042 -42.119168 -107.575434 -0.014128 -0.004081 11.455366 51.065562 -23.786440 -26.524400 -7.125000 0.000000 0.000000 12.773400 -4.285600 -14.034600 0.029503 0.080667 -0.020038 86.195605 0.708001 20.307276 -13.196367 21.673862 -2.578792 0.047632 0.112283 -10.813576 -18.794833 -23.071013 7.655600 7.125000 0.000000 0.000000 10.789500 -53.990500 -2.406000 
12.764366 17.849937 16.062757 -73.138586 -83.789431 75.743402 -0.423442 -0.060140 0.139174 -11.404693 -1.292840 -5.434667 2.215317 9.585973 27.502654 1.302325 -1.106611 -21.068951 0.017900 -0.864300 -2.375400 0.424129 0.114374 0.073879 29.320765 4.436689 -3.734478 -2.084372 -9.321520 26.697028 -1.060876 -1.074029 -19.938240 -0.939400 -6.173400 17.288400 1.987322 -1.273936 -2.174570 3.327281 -1.772866 -3.695496 2.700352 -0.928490 -2.512198 -9.140439 -5.751205 -5.397788 -1.503686 -6.842613 13.324170 0.537100 -3.972700 5.232100 0.106945 -0.091937 -0.036206 -48.881715 -48.268637 18.662049 148.188345 -42.180706 -107.524487 -0.014268 -0.003617 11.890213 52.064381 -23.845232 -27.407500 -7.125000 0.000000 0.000000 13.307700 -4.874900 -14.780200 0.028846 0.081411 -0.019926 86.186998 0.846087 20.825924 -13.384221 21.946185 -2.649133 0.047179 0.112763 -11.357817 -18.961623 -23.093896 7.735000 7.125000 0.000000 0.000000 10.629200 -54.045200 -2.383900 
12.768578 17.849536 16.067370 -77.440711 -83.685998 80.118086 -0.425600 -0.061306 0.139861 -11.284169 -1.397229 -5.431741 2.221585 9.597180 27.539925 1.313495 -0.899050 -21.244039 0.002800 -0.341400 -0.938000 0.422474 0.112694 0.073450 29.506240 4.628990 -3.767351 -2.077573 -9.308330 26.655587 -1.030296 -1.210773 -19.728162 -0.847600 -5.872200 16.414000 2.242954 -1.265673 -2.155972 3.441243 -1.765020 -3.745497 2.690956 -0.931982 -2.581727 -9.280967 -5.577314 -5.640582 -1.353332 -6.582594 13.623938 0.612500 -3.855500 5.371200 0.107824 -0.092791 -0.037437 -49.001424 -48.404038 18.523596 148.172597 -42.192386 -107.514208 -0.014644 -0.003653 12.279592 52.545266 -23.268485 -27.272500 -7.125000 0.000000 0.000000 13.733300 -4.382300 -15.170900 0.028745 0.081850 -0.021127 86.192035 0.756232 21.277501 -13.624239 22.291426 -2.739977 0.048399 0.112521 -12.064461 -19.679437 -22.817384 7.957600 7.125000 0.000000 0.000000 9.783400 -53.899400 -2.156300 
12.767676 17.849435 16.070880 -81.824711 -83.706469 84.608433 -0.428200 -0.062982 0.141231 -11.299908 -1.424989 -5.427924 2.220567 9.594645 27.534695 1.310300 -0.340551 -21.450598 0.005100 -0.463100 -1.272500 0.421488 0.110062 0.073673 29.527133 4.963986 -3.794952 -2.077499 -9.309193 26.657297 -1.025609 -1.073427 -19.614711 -0.840800 -5.849100 16.347200 2.274344 -1.297784 -2.166688 3.544135 -1.810086 -3.862989 2.793085 -0.956669 -2.704097 -9.222276 -5.378292 -5.805785 -1.342463 -6.303563 13.932366 0.616700 -3.729200 5.486300 0.108760 -0.093540 -0.038573 -49.139700 -48.341359 18.309922 148.295735 -42.090957 -107.597774 -0.014728 -0.003887 12.366125 51.898445 -23.525088 -26.971200 -7.125000 0.000000 0.000000 13.305900 -4.375200 -14.670700 0.029482 0.081606 -0.023046 86.266748 0.608007 21.333219 -13.812815 22.560744 -2.812280 0.047218 0.112498 -12.192864 -19.468372 -22.798478 7.860300 7.125000 0.000000 0.000000 9.991200 -53.840300 -2.188300 
12.766372 17.848633 16.077297 -84.898666 -83.843805 87.685239 -0.429785 -0.064211 0.141761 -11.476280 -1.435778 -5.301507 2.210738 9.575979 27.477155 1.316498 -0.046993 -21.629850 0.001900 -0.285200 -0.783500 0.421018 0.107786 0.073969 29.369295 5.167498 -3.766428 -2.089281 -9.333285 26.731800 -1.040644 -0.762762 -19.599789 -0.889800 -6.012600 16.820900 2.197743 -1.369190 -2.175144 3.560770 -1.905652 -3.884070 2.852763 -1.002993 -2.716414 -8.899114 -5.277236 -5.893356 -1.469880 -6.175833 13.952515 0.531400 -3.659600 5.486300 0.109172 -0.094664 -0.039301 -49.016332 -48.380166 18.101502 148.430178 -41.980316 -107.688353 -0.014557 -0.004214 12.028547 51.140039 -23.974475 -26.755400 -7.125000 0.000000 0.000000 12.763100 -4.562400 -14.080000 0.031330 0.081844 -0.022892 86.177605 0.841747 22.201741 -13.608665 22.267602 -2.733888 0.042564 0.114819 -13.085772 -18.471531 -23.193241 7.553400 7.125000 0.000000 0.000000 11.169700 -54.053500 -2.509700 
